<svg width="168" height="50" viewBox="0 0 168 50" xmlns="http://www.w3.org/2000/svg"><title>cms-logo-blue</title><path d="M98.674 7.71l16.609 9.812 16.608-9.813v34.194h-7.677V21.526l-8.931 5.249-8.932-5.249v20.377h-7.677V7.71zM80.37 35.65c3.588 0 7.053-1.717 8.906-4.526l5.005 5.197c-3.31 4.02-8.354 6.534-13.95 6.534-11.467 0-17.574-7.123-17.574-17.26 0-10.099 6.305-17.513 17.613-17.513 6.028 0 10.56 2.178 13.87 6.452l-5.123 5.405c-1.852-2.976-5.042-4.65-8.706-4.65-6.937 0-9.853 4.314-9.853 10.305 0 5.867 2.718 10.056 9.812 10.056zm76.287-13.24c6.777 1.676 10.364 5.573 10.364 10.265 0 5.362-4.65 10.14-14.698 10.14-6.03 0-11.506-2.097-15.447-5.95l5.24-5.614c2.601 2.68 7.212 4.397 10.875 4.397 4.65 0 6.226-1.256 6.226-2.973 0-.67-.589-2.263-4.688-3.311-.71-.164-5.201-1.297-5.91-1.507-5.674-1.467-11.152-3.728-11.152-9.721 0-5.698 5.24-10.096 14.463-10.096 6.105 0 11.111 2.219 14.5 5.906l-5.321 5.572c-1.892-2.344-5.79-4.356-9.3-4.356-4.53-.043-6.54 1.3-6.54 2.765 0 1.299 1.497 1.885 6.266 3.141.709.211 4.373 1.174 5.122 1.343zM25.284 0c13.963 0 25.282 11.192 25.282 25 0 13.805-11.319 25-25.282 25C11.318 50 0 38.805 0 25 0 11.192 11.318 0 25.284 0zm11.08 37.174V12.065l-11.08 6.467-11.082-6.467v25.11h22.162z" fill="#141B4D" fill-rule="evenodd"/></svg>